<svg width="27" height="29" viewBox="0 0 27 29" fill="none" xmlns="http://www.w3.org/2000/svg">
<path fill-rule="evenodd" clip-rule="evenodd" d="M16.7562 0.0683899C18.5412 0.146573 19.5215 0.268779 20.3229 0.513119C21.8804 0.987884 23.1924 1.97076 24.1275 3.36304C24.8467 4.43389 25.19 5.57836 25.19 6.90489C25.19 8.71392 24.5768 10.2221 23.3171 11.5108C22.9614 11.8748 22.6772 12.1759 22.6855 12.18C22.6939 12.1841 22.9515 12.3401 23.2581 12.5267C24.7354 13.4259 25.7638 14.8029 26.2106 16.4802C26.3691 17.0754 26.3984 17.3492 26.4 18.2517C26.4024 19.7245 26.1838 20.6389 25.511 21.9694C24.8074 23.361 24.1361 24.0535 22.1806 25.4052C21.445 25.9137 20.3599 26.6672 19.7692 27.0796C18.2689 28.1273 17.4338 28.4945 15.9794 28.7463C14.9338 28.9273 12.1794 28.9963 5.92598 28.9982L0 29V15.9449V2.88982L2.06202 1.44653L4.12403 0.003311L9.62274 7.24415e-05C12.647 -0.0016944 15.8571 0.0290777 16.7562 0.0683899ZM4.82995 13.0984V25.4663H6.35324H7.87653V14.81V4.15377L9.52986 4.16923L11.1832 4.18477L11.2203 7.8715L11.2575 11.5582L13.6725 8.85667C15.0007 7.37082 16.4887 5.70977 16.9791 5.16551L17.8708 4.17593L19.9514 4.18278C21.0957 4.18653 22.0939 4.18977 22.1695 4.19007C22.3315 4.19066 22.697 3.78818 18.2239 8.53591C16.3746 10.4987 14.8616 12.1244 14.8615 12.1487C14.8615 12.173 15.4854 12.9018 16.2481 13.7683C19.5134 17.4781 20.6757 18.7971 21.642 19.8897L22.6676 21.0492H20.5146H18.3618L15.4455 17.7957L12.5293 14.5422L11.8748 15.232L11.2203 15.9218V20.7056V25.4895L14.8056 25.4419C18.4452 25.3937 19.5224 25.3334 20.4157 25.1281C22.9171 24.5534 24.6539 22.8576 25.4606 20.2026C25.643 19.6022 25.6623 19.426 25.6667 18.3253C25.6722 16.9258 25.5977 16.5699 25.0733 15.491C24.4236 14.1543 23.2216 13.1115 21.6637 12.533C21.3562 12.4188 21.1054 12.3089 21.1061 12.2886C21.1068 12.2684 21.3612 12.1027 21.6714 11.9205C22.4207 11.4804 23.1407 10.7719 23.6168 10.0062C25.5559 6.88774 24.1708 2.83158 20.6744 1.38955C19.2604 0.806341 18.1077 0.730515 10.6571 0.730515H4.82995V13.0984Z" fill="#2A2E54"/>
</svg>
