<svg width="132" height="33" viewBox="0 0 132 33" fill="none" xmlns="http://www.w3.org/2000/svg">
<path d="M24.3637 0.844084L5.44913 0.44426C4.70538 1.51046 4.07811 3.74059 3.67649 4.13153C3.27486 4.52247 4.43566 22.864 4.008 31.986L6.07509 32.3414L25.8948 30.9642C33.1003 26.4773 33.7758 17.9921 25.8948 14.7935C25.8948 14.7935 30.9838 12.3501 30.1731 7.24127C29.3625 2.13241 24.3637 0.844084 24.3637 0.844084Z" fill="white"/>
<path fill-rule="evenodd" clip-rule="evenodd" d="M16.7562 0.0683899C18.5412 0.146573 19.5215 0.268779 20.3229 0.513119C21.8804 0.987884 23.1924 1.97076 24.1275 3.36304C24.8467 4.43389 25.19 5.57836 25.19 6.90489C25.19 8.71392 24.5768 10.2221 23.3171 11.5108C22.9614 11.8748 22.6772 12.1759 22.6855 12.18C22.6939 12.1841 22.9515 12.3401 23.2581 12.5267C24.7354 13.4259 25.7638 14.8029 26.2106 16.4802C26.3691 17.0754 26.3984 17.3492 26.4 18.2517C26.4024 19.7245 26.1838 20.6389 25.511 21.9694C24.8074 23.361 24.1361 24.0535 22.1806 25.4052C21.445 25.9137 20.3599 26.6672 19.7692 27.0796C18.2689 28.1273 17.4338 28.4945 15.9794 28.7463C14.9338 28.9273 12.1794 28.9963 5.92598 28.9982L0 29V15.9449V2.88982L2.06202 1.44653L4.12403 0.003311L9.62274 7.24415e-05C12.647 -0.0016944 15.8571 0.0290777 16.7562 0.0683899ZM4.82995 13.0984V25.4663H6.35324H7.87653V14.81V4.15377L9.52986 4.16923L11.1832 4.18477L11.2203 7.8715L11.2575 11.5582L13.6725 8.85667C15.0007 7.37082 16.4887 5.70977 16.9791 5.16551L17.8708 4.17593L19.9514 4.18278C21.0957 4.18653 22.0939 4.18977 22.1695 4.19007C22.3315 4.19066 22.697 3.78818 18.2239 8.53591C16.3746 10.4987 14.8616 12.1244 14.8615 12.1487C14.8615 12.173 15.4854 12.9018 16.2481 13.7683C19.5134 17.4781 20.6757 18.7971 21.642 19.8897L22.6676 21.0492H20.5146H18.3618L15.4455 17.7957L12.5293 14.5422L11.8748 15.232L11.2203 15.9218V20.7056V25.4895L14.8056 25.4419C18.4452 25.3937 19.5224 25.3334 20.4157 25.1281C22.9171 24.5534 24.6539 22.8576 25.4606 20.2026C25.643 19.6022 25.6623 19.426 25.6667 18.3253C25.6722 16.9258 25.5977 16.5699 25.0733 15.491C24.4236 14.1543 23.2216 13.1115 21.6637 12.533C21.3562 12.4188 21.1054 12.3089 21.1061 12.2886C21.1068 12.2684 21.3612 12.1027 21.6714 11.9205C22.4207 11.4804 23.1407 10.7719 23.6168 10.0062C25.5559 6.88774 24.1708 2.83158 20.6744 1.38955C19.2604 0.806341 18.1077 0.730515 10.6571 0.730515H4.82995V13.0984Z" fill="#2A2E54"/>
<path d="M34.4641 6.89398H40.1295C41.251 6.89398 42.0857 6.94252 42.6335 7.03962C43.1878 7.13025 43.6809 7.32444 44.1127 7.62221C44.551 7.91998 44.9152 8.31808 45.2052 8.81652C45.4953 9.30848 45.6403 9.86194 45.6403 10.4769C45.6403 11.1436 45.4598 11.7554 45.0989 12.3121C44.7444 12.8688 44.261 13.2863 43.6487 13.5646C44.5124 13.8171 45.1762 14.2475 45.6403 14.856C46.1043 15.4645 46.3364 16.1798 46.3364 17.0019C46.3364 17.6492 46.1849 18.2804 45.882 18.8953C45.5855 19.5038 45.1762 19.9925 44.6542 20.3615C44.1385 20.724 43.5004 20.9473 42.7399 21.0315C42.2629 21.0833 41.1125 21.1156 39.2884 21.1286H34.4641V6.89398ZM37.3258 9.26317V12.5548H39.2014C40.3165 12.5548 41.0093 12.5386 41.28 12.5063C41.7699 12.448 42.1534 12.2797 42.4305 12.0013C42.7141 11.7165 42.8559 11.3443 42.8559 10.8847C42.8559 10.4445 42.7334 10.0885 42.4885 9.81663C42.25 9.53828 41.8923 9.36998 41.4154 9.31172C41.1318 9.27935 40.3165 9.26317 38.9694 9.26317H37.3258ZM37.3258 14.924V18.7302H39.9749C41.0061 18.7302 41.6603 18.7011 41.9375 18.6429C42.3628 18.5652 42.7077 18.3775 42.9719 18.0797C43.2426 17.7754 43.378 17.3709 43.378 16.866C43.378 16.4387 43.2749 16.0762 43.0686 15.7785C42.8624 15.4807 42.5626 15.2638 42.1695 15.1279C41.7828 14.992 40.9384 14.924 39.6365 14.924H37.3258Z" fill="#2A2E54"/>
<path d="M47.985 14.0987C47.985 12.6487 48.2009 11.4317 48.6327 10.4478C48.955 9.72277 49.3933 9.07221 49.9476 8.4961C50.5083 7.91998 51.1206 7.49275 51.7845 7.2144C52.6675 6.83895 53.6858 6.65123 54.8396 6.65123C56.9278 6.65123 58.5972 7.30179 59.8476 8.6029C61.1044 9.90402 61.7328 11.7133 61.7328 14.0307C61.7328 16.3287 61.1108 18.1282 59.8669 19.4294C58.6229 20.724 56.9601 21.3713 54.8782 21.3713C52.7706 21.3713 51.0948 20.7272 49.8509 19.4391C48.6069 18.1444 47.985 16.3643 47.985 14.0987ZM50.9337 14.0016C50.9337 15.6134 51.3043 16.8368 52.0455 17.6719C52.7867 18.5004 53.7277 18.9147 54.8686 18.9147C56.0094 18.9147 56.9439 18.5037 57.6723 17.6816C58.407 16.853 58.7744 15.6134 58.7744 13.9627C58.7744 12.3315 58.4167 11.1145 57.7013 10.3118C56.9923 9.50915 56.048 9.10781 54.8686 9.10781C53.6891 9.10781 52.7384 9.51563 52.0165 10.3313C51.2946 11.1404 50.9337 12.3638 50.9337 14.0016Z" fill="#2A2E54"/>
<path d="M63.1977 14.0987C63.1977 12.6487 63.4136 11.4317 63.8455 10.4478C64.1677 9.72277 64.606 9.07221 65.1603 8.4961C65.721 7.91998 66.3333 7.49275 66.9972 7.2144C67.8802 6.83895 68.8986 6.65123 70.0523 6.65123C72.1406 6.65123 73.8099 7.30179 75.0603 8.6029C76.3171 9.90402 76.9456 11.7133 76.9456 14.0307C76.9456 16.3287 76.3236 18.1282 75.0796 19.4294C73.8357 20.724 72.1728 21.3713 70.091 21.3713C67.9833 21.3713 66.3076 20.7272 65.0636 19.4391C63.8197 18.1444 63.1977 16.3643 63.1977 14.0987ZM66.1464 14.0016C66.1464 15.6134 66.517 16.8368 67.2583 17.6719C67.9995 18.5004 68.9405 18.9147 70.0813 18.9147C71.2221 18.9147 72.1567 18.5037 72.885 17.6816C73.6198 16.853 73.9872 15.6134 73.9872 13.9627C73.9872 12.3315 73.6294 11.1145 72.914 10.3118C72.205 9.50915 71.2608 9.10781 70.0813 9.10781C68.9018 9.10781 67.9511 9.51563 67.2292 10.3313C66.5074 11.1404 66.1464 12.3638 66.1464 14.0016Z" fill="#2A2E54"/>
<path d="M79.0292 21.1286V6.89398H81.8909V13.2151L87.6724 6.89398H91.5202L86.1835 12.4383L91.8102 21.1286H88.1074L84.2112 14.4482L81.8909 16.8271V21.1286H79.0292Z" fill="#2A2E54"/>
<path d="M92.521 14.0987C92.521 12.6487 92.737 11.4317 93.1688 10.4478C93.4911 9.72277 93.9293 9.07221 94.4836 8.4961C95.0444 7.91998 95.6567 7.49275 96.3206 7.2144C97.2036 6.83895 98.2219 6.65123 99.3756 6.65123C101.464 6.65123 103.133 7.30179 104.384 8.6029C105.64 9.90402 106.269 11.7133 106.269 14.0307C106.269 16.3287 105.647 18.1282 104.403 19.4294C103.159 20.724 101.496 21.3713 99.4143 21.3713C97.3067 21.3713 95.6309 20.7272 94.387 19.4391C93.143 18.1444 92.521 16.3643 92.521 14.0987ZM95.4698 14.0016C95.4698 15.6134 95.8404 16.8368 96.5816 17.6719C97.3228 18.5004 98.2638 18.9147 99.4046 18.9147C100.545 18.9147 101.48 18.5037 102.208 17.6816C102.943 16.853 103.31 15.6134 103.31 13.9627C103.31 12.3315 102.953 11.1145 102.237 10.3118C101.528 9.50915 100.584 9.10781 99.4046 9.10781C98.2251 9.10781 97.2745 9.51563 96.5526 10.3313C95.8307 11.1404 95.4698 12.3638 95.4698 14.0016Z" fill="#2A2E54"/>
<path d="M107.589 16.497L110.373 16.2251C110.541 17.1637 110.879 17.8531 111.388 18.2933C111.904 18.7335 112.597 18.9536 113.467 18.9536C114.389 18.9536 115.081 18.7594 115.546 18.371C116.016 17.9761 116.251 17.5165 116.251 16.9922C116.251 16.6556 116.151 16.3708 115.952 16.1377C115.758 15.8982 115.417 15.6911 114.927 15.5163C114.592 15.3998 113.828 15.1926 112.635 14.8949C111.101 14.5129 110.025 14.0436 109.406 13.4869C108.536 12.7037 108.101 11.7489 108.101 10.6225C108.101 9.89755 108.304 9.2211 108.71 8.59319C109.123 7.95882 109.712 7.47656 110.479 7.14643C111.253 6.8163 112.184 6.65123 113.274 6.65123C115.052 6.65123 116.39 7.04286 117.286 7.82612C118.188 8.60938 118.662 9.6548 118.707 10.9624L115.845 11.0886C115.723 10.3571 115.458 9.83281 115.052 9.51563C114.653 9.19197 114.05 9.03014 113.245 9.03014C112.413 9.03014 111.762 9.20168 111.292 9.54476C110.989 9.76485 110.837 10.0594 110.837 10.4284C110.837 10.765 110.979 11.053 111.263 11.2925C111.624 11.5968 112.5 11.914 113.892 12.2441C115.284 12.5742 116.312 12.9173 116.976 13.2733C117.647 13.6229 118.169 14.1051 118.543 14.7201C118.923 15.3286 119.113 16.0827 119.113 16.9825C119.113 17.7981 118.887 18.5619 118.436 19.274C117.985 19.9861 117.347 20.5169 116.522 20.8664C115.697 21.2095 114.669 21.381 113.438 21.381C111.646 21.381 110.27 20.9667 109.31 20.1382C108.349 19.3031 107.776 18.0894 107.589 16.497Z" fill="#2A2E54"/>
<path d="M124.513 21.1286V9.30201H120.307V6.89398H131.57V9.30201H127.374V21.1286H124.513Z" fill="#2A2E54"/>
</svg>
